<?xml version="1.0" encoding="utf-8"?>
<!-- Generator: Adobe Illustrator 19.1.0, SVG Export Plug-In . SVG Version: 6.00 Build 0)  -->
<svg version="1.1" id="Layer_1" xmlns="http://www.w3.org/2000/svg" xmlns:xlink="http://www.w3.org/1999/xlink" x="0px" y="0px"
	 viewBox="0 0 1204 768" style="enable-background:new 0 0 1204 768;" xml:space="preserve">
<style type="text/css">
	.st0{fill:#212121;}
	.st1{fill:#313131;}
	.st2{fill:#FCDCCD;}
	.st3{fill:#F5D8C9;}
	.st4{fill:#ECCC89;}
	.st5{clip-path:url(#SVGID_2_);fill:#DBBF80;}
	.st6{fill:#FFFFFF;}
	.st7{fill:#FFDC92;}
	.st8{fill:#E8E8E8;}
	.st9{opacity:0.6;clip-path:url(#SVGID_4_);fill:#FFFFFF;}
	.st10{clip-path:url(#SVGID_6_);fill:#FFFFFF;}
	.st11{fill:none;}
	.st12{clip-path:url(#SVGID_8_);fill:#FFFFFF;}
	.st13{fill:#684C1E;}
	.st14{fill:#FAD8CB;}
	.st15{opacity:0.3;}
	.st16{clip-path:url(#SVGID_10_);fill:#FFFFFF;}
	.st17{fill:#F7D2C4;}
	.st18{fill:#B65446;}
	.st19{opacity:0.25;fill:#B65446;}
	.st20{fill:#F19682;}
	.st21{fill:#E97562;}
	.st22{clip-path:url(#SVGID_12_);fill:#3D3D3C;}
	.st23{fill:#30302F;}
	.st24{fill:#3D3D3C;}
	.st25{clip-path:url(#SVGID_14_);fill:#3D3D3C;}
	.st26{opacity:0.1;clip-path:url(#SVGID_18_);fill:#F5F6F6;}
	.st27{fill:#70706F;}
	.st28{clip-path:url(#SVGID_20_);fill:#1D1D1B;}
	.st29{clip-path:url(#SVGID_22_);fill:#313131;}
	.st30{fill:#585857;}
	.st31{clip-path:url(#SVGID_24_);fill:#1D1D1B;}
	.st32{clip-path:url(#SVGID_26_);fill:#313131;}
	.st33{fill:#282828;}
	.st34{clip-path:url(#SVGID_28_);fill:#1D1D1B;}
	.st35{fill:#5A372C;}
	.st36{fill:#2E2F2D;}
	.st37{opacity:0.2;}
	.st38{fill:#737273;}
	.st39{clip-path:url(#SVGID_30_);fill:#41261B;}
	.st40{clip-path:url(#SVGID_30_);}
	.st41{fill:#41261B;}
	.st42{opacity:0.23;clip-path:url(#SVGID_32_);fill:url(#SVGID_33_);}
	.st43{fill:#F4D7C8;}
	.st44{clip-path:url(#SVGID_35_);fill:#FFFFFF;}
	.st45{clip-path:url(#SVGID_39_);}
	.st46{fill-rule:evenodd;clip-rule:evenodd;fill:#AF7255;}
	.st47{clip-path:url(#SVGID_41_);fill-rule:evenodd;clip-rule:evenodd;fill:#1D1D1B;}
	.st48{fill:#8DC9AD;}
	.st49{fill:#AF7255;}
	.st50{clip-path:url(#SVGID_43_);fill:#D38078;}
	.st51{clip-path:url(#SVGID_43_);fill:#ECECEC;}
	.st52{fill:#815543;}
	.st53{clip-path:url(#SVGID_45_);fill:#1D1D1B;}
	.st54{fill:#D5444B;}
	.st55{fill:#C44450;}
	.st56{fill:#E84648;}
	.st57{clip-path:url(#SVGID_47_);fill:#C44450;}
	.st58{fill:#4B4B4B;}
	.st59{fill:#F8D3B9;}
	.st60{fill:#F5F6F6;}
</style>
<g>
	<path class="st0" d="M216.9,680.4c0,0,1.2,2.2,0.2,7.6c-0.2,0.9-0.6,3.4-0.9,5.3c-0.3,2.3-0.6,7.9-0.6,7.9l-1.4,0
		c0,0-2.2-13.4-0.8-16.1C214.9,682.5,216.5,678.6,216.9,680.4z"/>
	<path class="st1" d="M215.1,676.2c0,0,3.2,4.8,2.1,9.1c-1,4.4-1.7,4.7-2.1,6.6c-1.4,6.6-11.6,16.6-22.8,16.1
		c-19.1-0.7,0-16.6,7.2-21.5c7.1-4.9,4.2-10.5,4.2-10.5S208.7,675.8,215.1,676.2z"/>
	<g>
		<path class="st2" d="M202.9,678c0-0.1,0.7-5.1,0.7-5.2c0-0.5,0-1.1,0-1.6h11.4c-0.1,2.5-0.1,4.4,0.1,5c1.5,4.6,0.2,12.6-7.7,17.9
			c-10.5,7-14.6,0.1-14.4-0.6C194,690.1,202.9,685.5,202.9,678z"/>
		<path class="st3" d="M202.9,678c0-0.1,0.7-5.1,0.7-5.2c0-0.5,0-1.1,0-1.6h11.4c-0.1,2.5-0.1,4.4,0.1,5c1.5,4.6,0.2,12.6-7.7,17.9
			c-10.5,7-14.6,0.1-14.4-0.6C194,690.1,202.9,685.5,202.9,678z"/>
	</g>
	<path class="st0" d="M247.2,679.2c0,0-1.2,2.2-0.2,7.6c0.2,0.9,0.6,3.4,0.9,5.3c0.3,2.3,0.6,7.9,0.6,7.9l1.4,0
		c0,0,2.2-13.4,0.8-16.1C249.2,681.3,247.6,677.4,247.2,679.2z"/>
	<path class="st1" d="M249,675c0,0-3.1,4.8-2.1,9.1c1,4.4,1.7,4.7,2.1,6.6c1.4,6.6,11.6,16.6,22.8,16.1c19.1-0.7,0-16.6-7.2-21.5
		c-7.1-4.9-4.2-10.5-4.2-10.5S255.5,674.6,249,675z"/>
	<g>
		<path class="st2" d="M249.2,671.8h11.4c0.1,0.9,0.7,4.9,0.7,5c0.1,7.5,8.9,12.1,9.9,15.5c0.2,0.7-3.9,7.6-14.4,0.6
			c-7.9-5.3-9.2-13.3-7.7-17.9C249.2,674.5,249.2,673.3,249.2,671.8z"/>
		<path class="st2" d="M249.2,671.8h11.4c0.1,0.9,0.7,4.9,0.7,5c0.1,7.5,8.9,12.1,9.9,15.5c0.2,0.7-3.9,7.6-14.4,0.6
			c-7.9-5.3-9.2-13.3-7.7-17.9C249.2,674.5,249.2,673.3,249.2,671.8z"/>
	</g>
	<path class="st4" d="M264.2,675.4c0,0,2.2-107.8,1.4-134.3c-0.4-12.6,5.7-50.1,8.9-79.5c3.7-34-5.9-57.8-5.9-57.8l-75.7,0.9
		c0,0-9.9,25-6.9,56.5c2.8,29.2,13,62.4,12.6,78.7c-0.9,32.8,2.5,137.3,2.5,137.3s0.3,1.6,7,2.4c7.4,0.8,10.5-3.2,10.5-3.2
		l5.5-134.4c0,0,0.6-0.8,0.9-2c0.5-1.7-0.6-2.5-0.6-2.5s0.9-2.5,0.2-4.2c-0.7-1.6,3.4-78.9,3.4-78.9s3.4-0.9,5.8,0.1
		c2.2,0.9,3.3,68.6,4.8,81.3c0,0.3-0.3,1.1-0.3,1.3c0.1,0.9,0.6,1.5,0.6,1.5s-0.2,1.8,0,3c0.2,1.2,0.9,2.2,0.9,2.2l5.8,131.1
		c0,0-0.4,4.7,9.6,4.7C264.2,679.6,264.2,675.4,264.2,675.4z"/>
	<g>
		<defs>
			<path id="SVGID_1_" d="M264.2,675.4c0,0,2.2-107.8,1.4-134.3c-0.4-12.6,5.7-50.1,8.9-79.5c3.7-34-5.9-57.8-5.9-57.8l-75.7,0.9
				c0,0-9.9,25-6.9,56.5c2.8,29.2,13,62.4,12.6,78.7c-0.9,32.8,2.5,137.3,2.5,137.3s0.3,1.6,7,2.4c7.4,0.8,10.5-3.2,10.5-3.2
				l5.5-134.4c0,0,0.6-0.8,0.9-2c0.5-1.7-0.6-2.5-0.6-2.5s0.9-2.5,0.2-4.2c-0.7-1.6,3.4-78.9,3.4-78.9s3.4-0.9,5.8,0.1
				c2.2,0.9,2.8,65.4,4.4,78.2c0,0.3,0.2,4.2,0.2,4.5c0.1,0.9,0.6,1.5,0.6,1.5s-0.2,1.8,0,3c0.2,1.2,0.9,2.2,0.9,2.2l5.8,131.1
				c0,0-0.4,4.7,9.6,4.7C264.2,679.6,264.2,675.4,264.2,675.4z"/>
		</defs>
		<clipPath id="SVGID_2_">
			<use xlink:href="#SVGID_1_"  style="overflow:visible;"/>
		</clipPath>
		<rect x="229.7" y="386.2" class="st5" width="52.9" height="311.4"/>
	</g>
	<path class="st6" d="M269.4,404.9c0,0-37.5,19.5-75.5,0c0,0,23.4-26.7,3-61c0,0-8.7-34.4,11.4-45.3c0,0,18.3,21.1,42.1,0
		c0,0,12,18,10.8,44.5c0,0-9.6,47.4,8.1,63"/>
	<circle class="st6" cx="227.9" cy="326.9" r="1.1"/>
	<path class="st2" d="M242.6,254.9c0,0-0.3,11,0,16.4c0.2,4.9,1.8,23.1,18.3,37.7c7.2,6.3,12.3,12.4,9,18.9
		c-3.7,7.5-9.3,10.4-15.2,10.5c-23.6,0.2-23.3-12.2-23.3-12.2s0.1,12-21.8,12.7c-5.2,0.2-10-1.5-13.4-6.9
		c-9.7-15.5,13.3-25.1,17.1-33.2c9.2-19.3,6.8-30.5,6.7-32.5c-0.1-5.8-0.8-11.5-0.8-11.5L242.6,254.9z"/>
	<path class="st2" d="M181.4,473.5c-0.2-2.6,0.4-11-0.1-12.9c-0.5-1.9-3.4-5.6-3.6-6.5c-0.2-1-0.3-5.7-0.7-5.4c-0.8,0.5-5-0.6-5.3,0
		c-1.2-0.6-5.1,0.7-5.1,0.7s-6.6,24.9-7,25.6c-0.4,0.7,1.1,6.9,1.3,8c0.2,1,1.3,3.2,1.9,3.3c0,0,0.6,1.1,1,1.4
		c0.4,0.3,0.8,0.2,0.8,0.2s0.3,0.8,2.4,2.4c0.7,1.1,1.3,2.1,1.7,2.9c1.1,2,3.2,10.4,3.2,10.4s1.3,2.2,1.4-4.1c0-1.6-0.2-3.3-0.5-4.8
		c2.1,1.6,4.1,3.2,5,4.1c0.7,0.7,0.7,0.1,0.8,0.2c0,0-0.2-2.4-1.2-3.6c-0.3-0.4-0.9-1.1-1.6-2c1.5,0.9,2.6,1.5,2.6,1.5
		s0.3-0.1,0.2-0.6c-0.1-0.7-0.6-2.2-1.2-2.6c-1-0.7-1.1-1.1-1.1-1.1s0.8,0.3,1.2,0.5c0.4,0.3,0.3-0.8-1-2.3
		c-0.4-0.5-4.7-3.1-5.8-4.8c-0.1-0.2-0.3-0.4-0.4-0.7c0.5-2.7,1.2-5.3,1.9-7.6c0.9-2.8,3-4,3-4c0.6,1.1,1.1,3.1,1.2,4.5
		c0.1,1.4,0.5,3,3.6,7c3.1,4,5.8,3,5.8,3C186.7,485.2,182.1,481.7,181.4,473.5z"/>
	<path class="st7" d="M198.5,278.2c-1.4,0.6-7.6,3.3-15.9,16.6c-5.5,8.8-1.6,33.2-1.1,48.8c0.6,16-2.1,33.3-2.4,33.8
		c-1.9,3.6-8.2,54.8-13.3,73.9c0,0,1.1,4.3,12,1.1c0,0,16.1-55.6,18.2-61.6c2.1-6,4.3-14.2,3.8-17.2c-0.6-3.1-0.5-48.4,0.1-53.3
		C202.1,301.9,198.5,278.2,198.5,278.2z"/>
	<path class="st8" d="M201.3,307c4.5-9.7,7.3-30.6,18.6-31.9c0,0-0.4,8.3-3.3,15c-4.8,10.9-1,26.6,14.3,30.8
		c16.3-4.4,20.6-20.9,15.8-31.8c-2.9-6.4-3.6-12.8-3.6-12.8c11.3,1.4,15.1,21,19.6,30.8c4.5,9.7,9.9,9.9,9.4,18
		c-0.8,13.2-16.6,15.1-16.6,15.1s-9.8,2.5-18.9-4.4c-2.3-1.7-4.8-3.8-5.6-5.5c-0.8,2.1-2.9,4.1-5.3,6.2c-8,6.9-19.7,4.4-19.7,4.4
		s-11.9-0.2-13.6-15.9C191.5,317.4,196.8,316.7,201.3,307z"/>
	<g>
		<defs>
			<path id="SVGID_3_" d="M201.3,307c4.5-9.7,7.3-30.6,18.6-31.9c0,0-0.4,8.3-3.3,15c-4.8,10.9-1,26.6,14.3,30.8
				c16.3-4.4,20.6-20.9,15.8-31.8c-2.9-6.4-3.6-12.8-3.6-12.8c11.3,1.4,15.1,21,19.6,30.8c4.5,9.7,9.9,9.9,9.4,18
				c-0.8,13.2-16.6,15.1-16.6,15.1s-9.8,2.5-18.9-4.4c-2.3-1.7-4.8-3.8-5.6-5.5c-0.8,2.1-2.9,4.1-5.3,6.2c-8,6.9-19.7,4.4-19.7,4.4
				s-11.9-0.2-13.6-15.9C191.5,317.4,196.8,316.7,201.3,307z"/>
		</defs>
		<clipPath id="SVGID_4_">
			<use xlink:href="#SVGID_3_"  style="overflow:visible;"/>
		</clipPath>
		<rect x="230.7" y="273.3" class="st9" width="44.9" height="70.9"/>
	</g>
	<path class="st2" d="M249.4,452.6c0,0-4,7.3-5.3,9.4c-1.3,2-3.6,6.2-3.4,7.3s1.7,3.4,3.6,1.9c1.9-1.5,3.2-2.5,5.2-5.5
		c2-3,5.3-7.4,6.6-10.1C257.5,452.9,252.6,448.9,249.4,452.6z"/>
	<path class="st2" d="M252,461.3c0,0,2.1-0.5,2.2,0.5c0.1,1-1.7,3.9-2.6,5c-0.9,1.1-3.8,1.4-4.5,1.8c-0.8,0.5-0.4,1.3,1.4,2
		c1.8,0.8,2.5,1.4,4.5,0.6c2-0.8,3.1-0.9,3.7-1.9c0.6-1,6.4-12.8,7.2-13.9C264.6,454.3,261.1,445.2,252,461.3z"/>
	<g>
		<defs>
			<path id="SVGID_5_" d="M242.5,263.8c0,0-1.1,19.1,3.2,25.7c0,0-1.8,21-3,33.3l-2.7,51.1c0,0-7.4,55,8.7,55.7
				c0,0,24.9,3.5,25.2-13.9c0,0-10.8-18.8-13.2-30c0,0-0.6-8.7,12.7-69.4c0,0-1-15.5,4.7-22.1c0,0-5-16.9-24.7-20.7
				c0,0-6.2-2-8.3-5.3C245.2,268.3,244.6,264.1,242.5,263.8z"/>
		</defs>
		<use xlink:href="#SVGID_5_"  style="overflow:visible;fill:#FFDC92;"/>
		<clipPath id="SVGID_6_">
			<use xlink:href="#SVGID_5_"  style="overflow:visible;"/>
		</clipPath>
		<path class="st10" d="M253.5,273.6c0,0,4.1,2.9,8.4,9.5c0,0-5.6,4.2-8.7,4.2c0,0,3.8,4.4,6.6,4.4c0,0-6.6,55.1-20.1,81.6
			c0,0-6.9-41.6,2.3-87.9l0.6-2.6c0,0-1.3-16.5-2.5-19.3l9.2,0.7L253.5,273.6z"/>
	</g>
	<g>
		<path class="st11" d="M219.9,264.1c0,0-0.4,11.3-4.8,17.9c0,0,2.6,29.1,3.8,41.4l2.7,51.1c0,0,7.5,55-8.9,55.7
			c0,0-25.4,3.5-25.8-13.9c0,0,11-18.8,13.5-30c0,0,0.6-8.7-13-69.4c0,0,1-15.5-4.8-22.1c0,0,5.1-16.9,25.2-20.7c0,0,6.3-2,8.4-5.3
			C216.3,268.9,217.7,264.4,219.9,264.1z"/>
		<g>
			<defs>
				<path id="SVGID_7_" d="M219.9,264.1c0,0,2,19.1-2.4,25.8c0,0,0.2,21.2,1.4,33.6l2.7,51.1c0,0,7.5,55-8.9,55.7
					c0,0-25.4,3.5-25.8-13.9c0,0,11-18.8,13.5-30c0,0,0.6-8.7-13-69.4c0,0,1-15.5-4.8-22.1c0,0,5.1-16.9,25.2-20.7
					c0,0,6.3-2,8.4-5.3C216.3,268.9,217.7,264.4,219.9,264.1z"/>
			</defs>
			<use xlink:href="#SVGID_7_"  style="overflow:visible;fill:#FFDC92;"/>
			<clipPath id="SVGID_8_">
				<use xlink:href="#SVGID_7_"  style="overflow:visible;"/>
			</clipPath>
			<path class="st12" d="M207.8,274.2c0,0-4.1,2.9-8.6,9.5c0,0,5.7,4.2,8.9,4.2c0,0-3.8,4.4-6.7,4.4c0,0,6.7,55.1,20.5,81.6
				c0,0,7.1-41.4-2.2-87.7l0.2-2.8c0,0,0.4-16.5,1.6-19.3l-9.4,0.7L207.8,274.2z"/>
		</g>
	</g>
	<path class="st2" d="M242.9,451.3c0,0-3.8,4.3-4.9,5.6c-1.1,1.4-2.1,4.1-1.9,5.3c0.2,1.2,0.3,2.3-0.5,2.5c-0.8,0.2-2.3-0.8-2.9-2.7
		c-0.6-1.8-1.2-4.2-0.1-6.4c0.5-1.1,3-5.8,4.1-7.9c1.1-2.1,0.9-3.3,4.8-5.5C241.5,442.2,248.4,444.2,242.9,451.3z"/>
	<path class="st2" d="M243.5,449.8c0,0-4,5.9-5.4,8.1c-1.4,2.2-2.4,3.6-2.8,4.9c-0.4,1.3-1.8,4-1.3,5c0.5,1.1,2.7,1.9,3.8,1.5
		c1.1-0.4,1.5-2.5,2.4-3.2c0.9-0.8,8.6-11.1,10.1-13.6C251.8,450,246.2,446.9,243.5,449.8z"/>
	<path class="st2" d="M238.3,445.3c0,0-3.8,4.3-5.9,5.6c-2,1.3-1.8,3.2-3.6,5.4c-1.8,2.2-5.4,4.7-1.7,6.2c3.7,1.6,8.3-7.9,8.3-7.9
		S242.6,446.1,238.3,445.3z"/>
	<path class="st2" d="M257,427.4c0,0-1.2,3-1.5,3.7c0,0-7,5.1-10.7,7.6c-5.9,4-6.2,6.4-4.7,8.2c1.5,1.8,2.3,1.4,3.9,2.3
		c1.7,1,1.8,2.9,4.2,3.1c2.4,0.2,3.3-0.2,3.9,0.2c0.6,0.3-1.1,2,1.6,2.8c2.7,0.8,2.9,0.1,4.2,0.5c1.3,0.4,1.3,1.9,3.1,2
		s4.2-4.3,5.8-9.4c1.6-5.1,4.3-12.5,5-15.4C272.4,429.9,267.3,423.9,257,427.4z"/>
	<g>
		<g>
			<path class="st7" d="M270.3,389.6c0,0,3.9-13.3,2.9-19.5c-1-6.2-11-58-11.6-63c-0.7-5,0.6-26.2,2.4-29.5c0,0,16.9,6.8,20.4,39.7
				c3,28.2,7.7,47.4,8,51.3c0.3,3.9-2.3,10.8-6,21C282.8,399.8,268.4,403.4,270.3,389.6z"/>
			<path class="st7" d="M255.8,430.5c0,0,6.7-12.1,9.5-23.3c2.8-11.2,4.2-24.8,14-36.3c6.9-8.1,11.7-14.1,14.7,5.1
				c-5,16.4-15,39.6-18,46.8c-3.1,7.5-4.8,11.3-4.8,11.3C262.4,431,266.1,431.4,255.8,430.5z"/>
		</g>
	</g>
	<path class="st6" d="M255.4,431.1c0,0,0.1-3.3,3.3-6.2l14.6,4.5c0,0-0.3,4.4-2.1,5.7C271.2,435.1,262.5,431.4,255.4,431.1z"/>
	<path class="st6" d="M167.5,444.7c0,0-2.3,4.7-1.6,7.7c0,0,3.6,4,11.8,0.4c0,0,1.3-1.6,2-6.5L167.5,444.7z"/>
	<path class="st13" d="M156.7,120.3c0.9-4.3,6.3-17.7,28.6-14.9c18.7,2.3,41.5,26.9,49.2,54.1c10.6-27.3,32.1-52.6,50.3-54.8
		c22.3-2.8,27.8,35.2,28.7,39.4c0,0,0.6,23.2-4,44.3c-4.6,21.1-8.6,36.5-9.8,45.4c0,0-5.2,24.6-1.8,30.5c0,0-16.8-4.6-22.9-11.9
		c0,0,2.1,6.4,2.7,7.9c0,0-18.9-9.2-25-38.2c-1.4-6.8-17.8-15.2-23.1-25.9c-7.7,10.3-18.7,19.6-20,25.9c-6.1,29-25,38.2-25,38.2
		c0.6-1.5,2.7-7.9,2.7-7.9c-6.1,7.3-22.9,11.9-22.9,11.9c3.4-5.8-2.4-38.2-2.4-38.2c0-4.5-5-16.4-9.1-37.6
		C144.7,147.1,156.7,120.3,156.7,120.3z"/>
	<g>
		<path class="st2" d="M285.1,209c0,0,12.6-16.2,20.9-9.9c8.3,6.3-6.1,15.4-10.7,22.3c-2.8,4.3-10.1,3.6-11.1-2.4
			C283.4,213.8,285.1,209,285.1,209z"/>
		<path class="st14" d="M285.1,209c0,0,12.6-16.2,20.9-9.9c8.3,6.3-6.1,15.4-10.7,22.3c-2.8,4.3-10.1,3.6-11.1-2.4
			C283.4,213.8,285.1,209,285.1,209z"/>
	</g>
	<g>
		<path class="st2" d="M176.4,209c0,0-12.6-16.2-20.9-9.9c-8.3,6.3,6.1,15.4,10.7,22.3c2.8,4.3,10.1,3.6,11.1-2.4
			C178.1,213.8,176.4,209,176.4,209z"/>
		<path class="st14" d="M176.4,209c0,0-12.6-16.2-20.9-9.9c-8.3,6.3,6.1,15.4,10.7,22.3c2.8,4.3,10.1,3.6,11.1-2.4
			C178.1,213.8,176.4,209,176.4,209z"/>
	</g>
	<g>
		<path class="st2" d="M169.4,146.6L169.4,146.6c0-0.2,0-0.4,0-0.5c0-34.4,27.8-62.3,62.1-62.3c34.3,0,62.1,27.9,62.1,62.3
			c0,0.2,0,0.4,0,0.5h0c0,0-0.9,54.3-4.5,72.2c-3.6,18.1-36.3,41.9-57.6,42.1c-3.7,0,5.6-0.1-1.5,0c-21.9,0.3-55.3-29.5-58.3-43.8
			C168,199.2,169.4,146.6,169.4,146.6z"/>
		<path class="st2" d="M169.4,146.6L169.4,146.6c0-0.2,0-0.4,0-0.5c0-34.4,27.8-62.3,62.1-62.3c34.3,0,62.1,27.9,62.1,62.3
			c0,0.2,0,0.4,0,0.5h0c0,0-0.9,54.3-4.5,72.2c-3.6,18.1-36.3,41.9-57.6,42.1c-3.7,0,5.6-0.1-1.5,0c-21.9,0.3-55.3-29.5-58.3-43.8
			C168,199.2,169.4,146.6,169.4,146.6z"/>
	</g>
	<g class="st15">
		<defs>
			<path id="SVGID_9_" class="st15" d="M169.4,146.6L169.4,146.6c0-0.2,0-0.4,0-0.5c0-34.4,27.8-62.3,62.1-62.3
				c34.3,0,62.1,27.9,62.1,62.3c0,0.2,0,0.4,0,0.5h0c0,0-0.9,54.3-4.5,72.2c-3.6,18.1-36.3,41.9-57.6,42.1c-3.7,0,5.6-0.1-1.5,0
				c-21.9,0.3-55.3-29.5-58.3-43.8C168,199.2,169.4,146.6,169.4,146.6z"/>
		</defs>
		<clipPath id="SVGID_10_">
			<use xlink:href="#SVGID_9_"  style="overflow:visible;"/>
		</clipPath>
		<rect x="230.9" y="49.6" class="st16" width="93.9" height="221.9"/>
	</g>
	<path class="st17" d="M239.8,212.1c0,0-8.3,6-16.8,0"/>
	<g>
		<g>
			<path class="st18" d="M239.5,227.9c0,0-2.6,6.1-8.3,6.2c-5.7,0.1-6.8-5.5-6.6-6c0,0,4.4-1,6.7-1
				C233.7,227.2,237.4,228.3,239.5,227.9z"/>
			<path class="st19" d="M239.5,227.9c0,0-2.6,6.1-8.3,6.2c-5.7,0.1-6.8-5.5-6.6-6c0,0,4.4-1,6.7-1
				C233.7,227.2,237.4,228.3,239.5,227.9z"/>
		</g>
		<path class="st6" d="M239.2,227.9l0.2,0.5c0,0-2,2.4-7.9,2.5c-6,0.1-6.7-1.7-6.7-1.7l-0.3-1.4l2.2,0.1l4.9,0.5l3.6-0.5
			L239.2,227.9z"/>
		<path class="st20" d="M239,228.2"/>
		<path class="st21" d="M224.5,227.5c1.5-0.2,3.3-1.3,6.7-1.3c3.4,0,5.2,1.1,6.7,1.3c2.8,0.4,4-1.1,4-1.1c-0.5,0.9-1.5,1.6-3.1,2
			c-1.1,0.3-2.7,0.4-3.9,0.5c-0.9,0.1-3.4,0.3-3.6,0.3c-1,0-2.7-0.2-3.6-0.3c-1.2-0.1-2.8-0.2-3.9-0.5c-1.6-0.4-2.6-1.1-3.1-2
			C220.6,226.4,221.7,227.9,224.5,227.5z"/>
		<path class="st21" d="M239.1,228c0,0-1.5,2.5-3.2,3.8c-1.7,1.4-3.5,1.5-5.7,1.4c-2.1-0.1-4-0.5-5.7-5.3l-0.7-0.2
			c0,0,0.2,0.4,0.8,2.3c0.4,1.3,1.8,5.1,5.2,5.5c3.4,0.4,6.1-0.7,8-3.7c1-1.5,1.2-2.3,1.7-3c0.4-0.7,1-1.1,1-1.1"/>
	</g>
	<g>
		<path class="st11" d="M203.4,199.3c0,0,0.3-0.1-2.5-2.9c-6-6-13-5.2-25.2-2.5C175.7,193.9,186.9,203.8,203.4,199.3z"/>
		<path class="st11" d="M203.4,199.5c0,0,0.3-0.1-2.5-2.9c-6-6-13-5.2-25.2-2.5C175.7,194,186.9,203.9,203.4,199.5z"/>
		<g>
			<defs>
				<path id="SVGID_11_" d="M203.9,199.5c0,0,0.3-0.1-2.5-2.9c-6-6-13-5.2-25.2-2.5C176.1,194,187.3,203.9,203.9,199.5z"/>
			</defs>
			<clipPath id="SVGID_12_">
				<use xlink:href="#SVGID_11_"  style="overflow:visible;"/>
			</clipPath>
			<path class="st22" d="M200,195.2c0,4.8-3.2,8.6-7.2,8.6c-4,0-7.2-3.9-7.2-8.6c0-4.8,3.2-8.6,7.2-8.6
				C196.7,186.5,200,190.4,200,195.2z"/>
		</g>
		<path class="st23" d="M182,198.2c-0.7-0.3-1.4-0.6-2.1-0.9c-2.1-0.1-7.3-0.7-7.3-0.7c0.5,0,2.9-0.6,4.2-0.9
			c-2.3-1.3-3.5-2.3-3.5-2.3c12.6-3.8,24.1-1.9,28.2,3.2c-5.5-4.5-12.5-4.1-24-2.5c0,0,2.8,3,9.4,5.4c-0.8-0.2-1.4,0-2.2-0.3
			c-5.6,1.2-6.6-0.4-6.6-0.4C180.3,199,181.5,198.5,182,198.2z"/>
		<path class="st24" d="M200.8,175c4.1,0.7,7.2-1.5,0.4-3.6c-6.3-1.9-24.2-3.6-33,8.8C168.1,180.2,177.1,170.8,200.8,175z"/>
		<path class="st11" d="M254.8,199.1c0,0-0.3-0.1,2.4-2.9c5.7-6,12.4-5.2,24.1-2.5C281.3,193.7,270.6,203.6,254.8,199.1z"/>
		<path class="st11" d="M254.8,199.3c0,0-0.3-0.1,2.4-2.9c5.7-6,12.4-5.2,24.1-2.5C281.3,193.8,270.6,203.7,254.8,199.3z"/>
		<g>
			<defs>
				<path id="SVGID_13_" d="M254.5,199.3c0,0-0.3-0.1,2.4-2.9c5.7-6,12.4-5.2,24.1-2.5C280.9,193.8,270.2,203.7,254.5,199.3z"/>
			</defs>
			<clipPath id="SVGID_14_">
				<use xlink:href="#SVGID_13_"  style="overflow:visible;"/>
			</clipPath>
			<ellipse class="st25" cx="265.1" cy="195" rx="6.9" ry="8.6"/>
		</g>
		<path class="st23" d="M275.3,198c0.7-0.3,1.3-0.6,2-0.9c2-0.1,7-0.7,7-0.7c-0.5,0-2.8-0.6-4-0.9c2.2-1.3,3.4-2.3,3.4-2.3
			c-12-3.8-23-1.9-26.9,3.2c5.3-4.5,12-4.1,22.9-2.5c0,0-2.6,3-8.9,5.4c0.8-0.2,1.4,0,2.1-0.3c5.3,1.2,6.3-0.4,6.3-0.4
			C277,198.8,275.8,198.3,275.3,198z"/>
		<path class="st24" d="M257.4,174.8c-3.9,0.7-6.9-1.5-0.3-3.6c6-1.9,23-3.6,31.5,8.8C288.5,180,280,170.6,257.4,174.8z"/>
	</g>
	<g>
		<defs>
			<path id="SVGID_15_" d="M178.6,80.8c13.8-28.9,63.3-31,86.6-21.6c25.6,10.3,60.8,53.1,46.6,113.7c0,0-1.1,11.1-8.2,38.9
				l-1.4-22.5c0,0-3.6,38.9-16.7,55.6c0,0-4.3-72.4-45.9-93.4c0,0,7.5,10.3,10.3,15.7c0,0-16-11.4-29.2-18.5
				c-6.9-3.8-20.9-9.3-31.7-19.2c-2.3,5.6-9.3,23.1-10.6,29.8c0,0-0.6,2.6-5.8,18.4c-5.4,16.4,0.1,34.7-3.5,40.7
				c0,0-6.5-26.3-11.7-46.7c-5.2-20.4-5.6-33.2-5.6-33.2l-1.2,8.6C150.7,147.1,147.7,97.3,178.6,80.8z"/>
		</defs>
		<use xlink:href="#SVGID_15_"  style="overflow:visible;fill:#684C1E;"/>
		<clipPath id="SVGID_16_">
			<use xlink:href="#SVGID_15_"  style="overflow:visible;"/>
		</clipPath>
	</g>
</g>
<g>
	<g>
		<defs>
			<path id="SVGID_17_" d="M634.1,400.8c0,0-5-79.1-5.6-89.8c-0.6-10.8-4-40.6-4-40.6c4.2-5,22.5-15.3,22.5-15.3l22.1-3.9l32.1,14.6
				c0,0-3.4,21.5-3.7,42.3c-0.3,19.7-0.2,91.7-5,96.4c0,0,1.7,5-27.8,4.7C635.3,408.9,634.1,400.8,634.1,400.8z"/>
		</defs>
		<use xlink:href="#SVGID_17_"  style="overflow:visible;fill:#383938;"/>
		<clipPath id="SVGID_18_">
			<use xlink:href="#SVGID_17_"  style="overflow:visible;"/>
		</clipPath>
		<rect x="595.6" y="251.2" class="st26" width="67.8" height="164.7"/>
	</g>
	<path class="st27" d="M672.1,669.2c0,0,0.2,6.1,0,7.7c-0.1,1.4,0.3,3.9,0.3,3.9s1.3,2.4,3,2.8c3.3,0.8,2.2,6.9,7.8,11.9
		c3.8,3.4,9.6,6.1,18.7,5.6c14.6-0.9,16.6-4.7,16.6-4.7s0.2-0.7,0.3-1.9c0-0.2-0.3-0.5-0.3-0.7c0.4-4.3,0.4-12.7-7.8-14.8
		c-7.5-1.9-9.6-11.2-9.7-13.6C701,662.6,673.2,656.3,672.1,669.2z"/>
	<g class="st15">
		<defs>
			<path id="SVGID_19_" class="st15" d="M672.1,669.2c0,0,0.2,6.1,0,7.7c-0.1,1.4,0.3,3.9,0.3,3.9s1.3,2.4,3,2.8
				c3.3,0.8,2.2,6.9,7.8,11.9c3.8,3.4,9.6,6.1,18.7,5.6c14.6-0.9,16.6-4.7,16.6-4.7s0.2-0.7,0.3-1.9c0-0.2-0.3-0.5-0.3-0.7
				c0.4-4.3,0.4-12.7-7.8-14.8c-7.5-1.9-9.6-11.2-9.7-13.6C701,662.6,673.2,656.3,672.1,669.2z"/>
		</defs>
		<clipPath id="SVGID_20_">
			<use xlink:href="#SVGID_19_"  style="overflow:visible;"/>
		</clipPath>
		<path class="st28" d="M668.9,674l47.7,25.3c0,0-11.4,7.7-46.2,1.5L668.9,674z"/>
	</g>
	<g>
		<defs>
			<path id="SVGID_21_" d="M672.1,669.2c0,0,0.2,6.1,0,7.7c-0.1,1.4,0.3,3.9,0.3,3.9s1.3,2.4,3,2.8c3.3,0.8,2.2,6.9,7.8,11.9
				c3.8,3.4,9.6,6.1,18.7,5.6c14.6-0.9,16.6-4.7,16.6-4.7s0.2-0.7,0.3-1.9c0-0.2-0.3-0.5-0.3-0.7c0.4-4.3,0.4-12.7-7.8-14.8
				c-7.5-1.9-9.6-11.2-9.7-13.6C700.9,662.6,673.1,656.3,672.1,669.2z"/>
		</defs>
		<clipPath id="SVGID_22_">
			<use xlink:href="#SVGID_21_"  style="overflow:visible;"/>
		</clipPath>
		<path class="st29" d="M672.5,680.8l-0.2-1.7c0.8,1,2.3,2.5,3.1,2.7c1.3,0.3,3.2,2,4.7,6c1.5,4,9.9,15.3,38.4,6l0,0l0.3,0.6l-0.3,2
			l1.3,1.3c-0.4,0.3-9.3,7.5-24.8,4.7c-15.9-2.8-18.4-12-18.7-14.4c-0.1-1.6-2.1-3.1-3.4-4C673.3,682.6,672.5,680.8,672.5,680.8z"/>
	</g>
	<path class="st30" d="M653.3,667.8c0,0-0.2,6.1,0,7.7c0.1,1.4-0.3,3.9-0.3,3.9s-1.3,2.4-2.9,2.8c-3.2,0.8-2.2,6.9-7.7,11.9
		c-3.8,3.4-9.6,6.1-18.6,5.6c-14.5-0.9-16.6-4.7-16.6-4.7s-0.2-0.7-0.3-1.9c0-0.2,0.3-0.5,0.3-0.7c-0.4-4.3-0.4-12.7,7.7-14.8
		c7.5-1.9,9.5-11.2,9.6-13.6C624.6,661.3,652.2,654.9,653.3,667.8z"/>
	<g class="st15">
		<defs>
			<path id="SVGID_23_" class="st15" d="M653.3,667.8c0,0-0.2,6.1,0,7.7c0.1,1.4-0.3,3.9-0.3,3.9s-1.3,2.4-2.9,2.8
				c-3.2,0.8-2.2,6.9-7.7,11.9c-3.8,3.4-9.6,6.1-18.6,5.6c-14.5-0.9-16.6-4.7-16.6-4.7s-0.2-0.7-0.3-1.9c0-0.2,0.3-0.5,0.3-0.7
				c-0.4-4.3-0.4-12.7,7.7-14.8c7.5-1.9,9.5-11.2,9.6-13.6C624.6,661.3,652.2,654.9,653.3,667.8z"/>
		</defs>
		<clipPath id="SVGID_24_">
			<use xlink:href="#SVGID_23_"  style="overflow:visible;"/>
		</clipPath>
		<path class="st31" d="M657.9,672.6l-50.1,25.3c0,0,12,7.7,48.6,1.5L657.9,672.6z"/>
	</g>
	<g>
		<defs>
			<path id="SVGID_25_" d="M653.4,667.8c0,0-0.2,6.1,0,7.7c0.1,1.4-0.3,3.9-0.3,3.9s-1.3,2.4-2.9,2.8c-3.2,0.8-2.2,6.9-7.7,11.9
				c-3.8,3.4-9.6,6.1-18.6,5.6c-14.5-0.9-16.6-4.7-16.6-4.7s-0.2-0.7-0.3-1.9c0-0.2,0.3-0.5,0.3-0.7c-0.4-4.3-0.4-12.7,7.7-14.8
				c7.5-1.9,9.5-11.2,9.6-13.6C624.6,661.3,652.3,654.9,653.4,667.8z"/>
		</defs>
		<clipPath id="SVGID_26_">
			<use xlink:href="#SVGID_25_"  style="overflow:visible;"/>
		</clipPath>
		<path class="st32" d="M652.9,679.4l0.2-1.7c-0.8,1-2.3,2.5-3.1,2.7c-1.2,0.3-3.2,2-4.7,6c-1.5,4-9.9,15.3-38.3,6v0l-0.3,0.6l0.3,2
			l-1.3,1.3c0.4,0.3,9.3,7.5,24.7,4.7c15.8-2.8,18.4-12,18.6-14.4c0.1-1.6,2.1-3.1,3.4-4C652.1,681.2,652.9,679.4,652.9,679.4z"/>
	</g>
	<path class="st33" d="M622.9,667.2c0,0,6.1-106,6.9-132.5c0.8-26.5,4.5-132,4.5-132l59.3,0.4c0,0,2.6,97.5,3.5,130.3
		c0.9,32.8,5.1,134.7,5.1,134.7s-3.6,3.2-10.3,4.1c-18.3,1.2-19.6-6.8-19.6-6.8l0.2-5.4l-1.1-124.5c0,0-0.6-0.8-0.9-2
		c-0.5-1.7,0.6-2.5,0.6-2.5s-0.9-2.5-0.2-4.2c0.7-1.6-3.4-87.5-3.4-87.5s-3,0-5.7,0.4c-2.4,0.3-3.3,77-4.8,89.8
		c0,0.3,0.3,1.1,0.3,1.3c-0.1,0.9-0.6,1.5-0.6,1.5s0.2,1.8,0,3c-0.2,1.2-0.9,2.2-0.9,2.2l-0.8,130.9c0,0-9.6,3.5-19.2,2.8
		C626.5,670.4,622.9,667.2,622.9,667.2z"/>
	<g class="st15">
		<defs>
			<path id="SVGID_27_" class="st15" d="M622.9,667.2c0,0,6.1-106,6.9-132.5c0.8-26.5,4.5-132,4.5-132l59.3,0.4
				c0,0,2.6,97.5,3.5,130.3c0.9,32.8,5.1,134.7,5.1,134.7s-3.6,3.2-10.3,4.1c-18.3,1.2-19.6-6.8-19.6-6.8l0.2-5.4l-1.1-124.5
				c0,0-0.6-0.8-0.9-2c-0.5-1.7,0.6-2.5,0.6-2.5s-0.9-2.5-0.2-4.2c0.7-1.6-3.4-87.5-3.4-87.5s-3,0-5.7,0.4c-2.4,0.3-3.3,77-4.8,89.8
				c0,0.3,0.3,1.1,0.3,1.3c-0.1,0.9-0.6,1.5-0.6,1.5s0.2,1.8,0,3c-0.2,1.2-0.9,2.2-0.9,2.2l-0.8,130.9c0,0-9.6,3.5-19.2,2.8
				C626.5,670.4,622.9,667.2,622.9,667.2z"/>
		</defs>
		<clipPath id="SVGID_28_">
			<use xlink:href="#SVGID_27_"  style="overflow:visible;"/>
		</clipPath>
		<rect x="618.9" y="396.6" class="st34" width="45.5" height="283.1"/>
	</g>
	<path class="st35" d="M634.6,400.4c0,0-1.7,1.7-1.1,5.7c0,0-0.2,6.6,30.4,7.4c32.1,0.8,30.5-8.3,30.5-8.3s0.9-1.7,0-3.6
		c0,0-12.6,5.5-31.8,4.8C643.3,406,634.6,400.4,634.6,400.4z"/>
	<g>
		<g>
			<path class="st36" d="M666.7,405.8l-5.4-0.1c-2.4,0-4.4,1.9-4.4,4.3c0,2.4,1.9,4.4,4.3,4.4l5.4,0.1c2.4,0,4.4-1.9,4.4-4.3
				C671,407.8,669.1,405.9,666.7,405.8z M666.6,412.6l-5.5-0.1c-1.3,0-2.4-1.1-2.4-2.4c0-1.3,1.1-2.4,2.4-2.4l5.5,0.1
				c1.3,0,2.4,1.1,2.4,2.4h0C669,411.5,667.9,412.6,666.6,412.6z"/>
		</g>
		<g class="st37">
			<path class="st38" d="M666.7,405.8l-5.4-0.1c-2.4,0-4.4,1.9-4.4,4.3c0,2.4,1.9,4.4,4.3,4.4l5.4,0.1c2.4,0,4.4-1.9,4.4-4.3
				C671,407.8,669.1,405.9,666.7,405.8z M666.6,412.6l-5.5-0.1c-1.3,0-2.4-1.1-2.4-2.4c0-1.3,1.1-2.4,2.4-2.4l5.5,0.1
				c1.3,0,2.4,1.1,2.4,2.4h0C669,411.5,667.9,412.6,666.6,412.6z"/>
		</g>
	</g>
	<g>
		<defs>
			<path id="SVGID_29_" d="M634,400.2c0,0-1.1,1.9-0.5,6c0,0-0.2,6.6,30.4,7.4c32.1,0.8,30.5-8.3,30.5-8.3s1-1.7,0.1-3.6
				c0,0-12.7,5.5-32,4.9C643.2,406,634,400.2,634,400.2z"/>
		</defs>
		<clipPath id="SVGID_30_">
			<use xlink:href="#SVGID_29_"  style="overflow:visible;"/>
		</clipPath>
		<path class="st39" d="M689.1,403.6c0,0,0.2,7.8,0.2,8.1c0,0.3,1.4,0,1.4,0l0.4-8.6L689.1,403.6z"/>
		<path class="st39" d="M643.9,404c0,0-1.1,8.1-1.1,8.3c0,0.3-1.4-0.1-1.4-0.1l0.6-8.7L643.9,404z"/>
		<g class="st40">
			<path class="st41" d="M683,405c0,0,0.2,7.6,0.2,7.8c0,0.3,1.4,0,1.4,0l0.3-8.2L683,405z"/>
			<path class="st41" d="M638.3,402.2c0,0-1,7.6-1.1,7.8c0,0.3-1.4-0.1-1.4-0.1l0.6-8.5L638.3,402.2z"/>
		</g>
	</g>
	<path class="st36" d="M669.2,410.7l0-1.1C669.2,409.6,666,410.3,669.2,410.7z"/>
	<g>
		<defs>
			<path id="SVGID_31_" d="M651.1,243.1c0,0,0.8,11.1,0,16.4c-0.7,5.3,4.4,16.8,14.4,15.2c10-1.6,9.6-14.8,9-20.2
				c-0.6-5.3,0-11.5,0-11.5L651.1,243.1z"/>
		</defs>
		<use xlink:href="#SVGID_31_"  style="overflow:visible;fill:#FCDCCD;"/>
		<clipPath id="SVGID_32_">
			<use xlink:href="#SVGID_31_"  style="overflow:visible;"/>
		</clipPath>
		<linearGradient id="SVGID_33_" gradientUnits="userSpaceOnUse" x1="665.425" y1="262.2284" x2="663.9461" y2="249.7209">
			<stop  offset="0" style="stop-color:#FFFFFF;stop-opacity:0"/>
			<stop  offset="1" style="stop-color:#F49D7B"/>
		</linearGradient>
		<path class="st42" d="M650.2,251.5c0,0,10.6,10.5,27,1.3l-0.4-12.4h-26.4L650.2,251.5z"/>
	</g>
	<g>
		<path class="st6" d="M651.4,251.6c-2.8,0.9-4.2,5.8-4.2,5.8c-1.3,2,3.3,22.7,3.3,22.7l14.2-5.4
			C652.1,268.5,651.4,251.6,651.4,251.6z"/>
		<path class="st6" d="M679.3,259c-1.3-4.5-4.7-7.4-4.7-7.4c0.8,17-10.6,23.3-10.6,23.3l13.4,6.1C678.7,276.3,679.5,262.6,679.3,259
			z"/>
	</g>
	<g>
		<path class="st2" d="M601.2,172.8c0,0-6.7-10.2-15.3-3.7c-8.6,6.5-0.5,14.6,3.5,18.1c3.9,3.5,4.2,10,10.4,9.3
			c6.3-0.7,8.3-6.7,8.3-6.7L601.2,172.8z"/>
		<path class="st43" d="M601.2,172.8c0,0-6.7-10.2-15.3-3.7c-8.6,6.5-0.5,14.6,3.5,18.1c3.9,3.5,4.2,10,10.4,9.3
			c6.3-0.7,8.3-6.7,8.3-6.7L601.2,172.8z"/>
	</g>
	<g>
		<path class="st2" d="M722.6,172.8c0,0,6.7-10.2,15.3-3.7c8.6,6.5,0.5,14.6-3.5,18.1c-3.9,3.5-4.2,10-10.4,9.3
			c-6.3-0.7-8.3-6.7-8.3-6.7L722.6,172.8z"/>
		<path class="st43" d="M722.6,172.8c0,0,6.7-10.2,15.3-3.7c8.6,6.5,0.5,14.6-3.5,18.1c-3.9,3.5-4.2,10-10.4,9.3
			c-6.3-0.7-8.3-6.7-8.3-6.7L722.6,172.8z"/>
	</g>
	<g>
		<path class="st2" d="M725.8,130L725.8,130c0-0.2,0-0.4,0-0.6c0-35.5-28.8-64.2-64.2-64.2c-35.5,0-64.2,28.8-64.2,64.2
			c0,0.2,0,0.4,0,0.6h0c0,0,0.9,52.4,4.6,70.8c3.7,18.7,39.2,50.4,61.2,50.7c3.8,0-2.3-0.2,5.1,0c22.6,0.3,52-37.7,55.1-52.4
			C727.2,180.6,725.8,130,725.8,130z"/>
		<path class="st2" d="M725.8,130L725.8,130c0-0.2,0-0.4,0-0.6c0-35.5-28.8-64.2-64.2-64.2c-35.5,0-64.2,28.8-64.2,64.2
			c0,0.2,0,0.4,0,0.6h0c0,0,0.9,52.4,4.6,70.8c3.7,18.7,39.2,50.4,61.2,50.7c3.8,0-2.3-0.2,5.1,0c22.6,0.3,52-37.7,55.1-52.4
			C727.2,180.6,725.8,130,725.8,130z"/>
	</g>
	<g class="st15">
		<defs>
			<path id="SVGID_34_" class="st15" d="M725.8,130L725.8,130c0-0.2,0-0.4,0-0.6c0-35.5-28.8-64.2-64.2-64.2
				c-35.5,0-64.2,28.8-64.2,64.2c0,0.2,0,0.4,0,0.6h0c0,0,0.9,52.4,4.6,70.8c3.7,18.7,39.2,50.4,61.2,50.7c3.8,0-2.3-0.2,5.1,0
				c22.6,0.3,52-37.7,55.1-52.4C727.2,180.6,725.8,130,725.8,130z"/>
		</defs>
		<clipPath id="SVGID_35_">
			<use xlink:href="#SVGID_34_"  style="overflow:visible;"/>
		</clipPath>
		<polygon class="st44" points="663.1,268.4 569.2,268.4 569.2,96.2 661.6,51.9 		"/>
	</g>
	<g>
		<defs>
			<path id="SVGID_36_" d="M725.8,130L725.8,130c0-0.2,0-0.4,0-0.6c0-35.5-28.8-64.2-64.2-64.2c-35.5,0-64.2,28.8-64.2,64.2
				c0,0.2,0,0.4,0,0.6h0c0,0,0.9,52.4,4.6,70.8c3.7,18.7,39.2,50.4,61.2,50.7c3.8,0-2.3-0.2,5.1,0c22.6,0.3,52-37.7,55.1-52.4
				C727.2,180.6,725.8,130,725.8,130z"/>
		</defs>
		<clipPath id="SVGID_37_">
			<use xlink:href="#SVGID_36_"  style="overflow:visible;"/>
		</clipPath>
	</g>
	<g>
		<defs>
			<path id="SVGID_38_" d="M725.3,133.6L725.3,133.6c0-0.2,0-0.4,0-0.6c0-35.5-23.1-69.9-64.2-67.8c-43,2.1-64.2,32.4-64.2,67.8
				c0,0.2,0,0.4,0,0.6h0c0,0,0.9,52.4,4.6,70.8c3.7,18.7,39.2,50.4,61.2,50.7c3.8,0-2.3-0.2,5.1,0c22.6,0.3,52-37.7,55.1-52.4
				C726.7,184.2,725.3,133.6,725.3,133.6z"/>
		</defs>
		<clipPath id="SVGID_39_">
			<use xlink:href="#SVGID_38_"  style="overflow:visible;"/>
		</clipPath>
		<g id="_x35__10_" class="st45">
			<path class="st46" d="M708.2,218.5c-0.4,0.6-2,0.8-3,1.1c-12.2-11.3-26.6-16.8-41.1-16.3c-16.8-0.5-33.6,5-47.7,16.3
				c-1.2-0.3-3.1-0.5-3.5-1.1c-10-13.4-24.9-56.1-24.9-56.1c0.4,2.5,0.8,5,1.2,7.4c3.5,18.8,5.6,38,11.1,56.2
				c9.5,31.4,30.9,45.5,63.8,44.7c28.3,0.8,46.8-13.4,54.9-44.7c4.7-18.2,6.6-37.4,9.6-56.2c0.4-2.5,0.7-5,1.1-7.4
				C729.6,162.4,716.7,205.1,708.2,218.5z M685.9,221.3c-1,6.1-5.5,12.4-11.2,12.6c-0.5,0.1-3.6-0.2-4-0.3c-2.7-1-4.4-3.7-6.8-4.5v0
				c-4-0.9-5.7,3.3-9.3,4.5c-0.4,0.1-3.6,0.4-4.1,0.3c-5.8-0.1-10.4-6.5-11.4-12.6c-0.1-0.8-0.2-1.5-0.2-2.3
				c0.7-9.7,20.1-9.5,20.7-9.5c1.1-0.1,4.5-0.2,6-0.1c0.6,0,19.8-0.2,20.5,9.5C686.1,219.8,686,220.5,685.9,221.3z"/>
			<g class="st15">
				<defs>
					<path id="SVGID_40_" class="st15" d="M708.2,218.5c-0.4,0.6-2,0.8-3,1.1c-12.2-11.3-26.6-16.8-41.1-16.3
						c-16.8-0.5-33.6,5-47.7,16.3c-1.2-0.3-3.1-0.5-3.5-1.1c-10-13.4-24.9-56.1-24.9-56.1c0.4,2.5,0.8,5,1.2,7.4
						c3.5,18.8,5.6,38,11.1,56.2c9.5,31.4,30.9,45.5,63.8,44.7c28.3,0.8,46.8-13.4,54.9-44.7c4.7-18.2,6.6-37.4,9.6-56.2
						c0.4-2.5,0.7-5,1.1-7.4C729.6,162.4,716.7,205.1,708.2,218.5z M685.9,221.3c-1,6.1-5.5,12.4-11.2,12.6c-0.5,0.1-3.6-0.2-4-0.3
						c-2.7-1-4.4-3.7-6.8-4.5v0c-4-0.9-5.7,3.3-9.3,4.5c-0.4,0.1-3.6,0.4-4.1,0.3c-5.8-0.1-10.4-6.5-11.4-12.6
						c-0.1-0.8-0.2-1.5-0.2-2.3c0.7-9.7,20.1-9.5,20.7-9.5c1.1-0.1,4.5-0.2,6-0.1c0.6,0,19.8-0.2,20.5,9.5
						C686.1,219.8,686,220.5,685.9,221.3z"/>
				</defs>
				<clipPath id="SVGID_41_">
					<use xlink:href="#SVGID_40_"  style="overflow:visible;"/>
				</clipPath>
				<rect x="586.2" y="149.5" class="st47" width="76.2" height="130.7"/>
			</g>
		</g>
	</g>
	<polygon class="st17" points="662.2,185.4 665,200.5 652.5,200.4 	"/>
	<ellipse class="st48" cx="624.5" cy="176.5" rx="7.5" ry="8.6"/>
	<ellipse class="st48" cx="701.6" cy="176.5" rx="7.5" ry="8.6"/>
	<path class="st49" d="M638.5,164.1c1.2,0,1.2-5.2,0-7.8c-1.2-2.6-4.2-3.5-5-3.2c-0.8,0.3-0.3,0.8-0.3,0.8s-8.2,0-9,0.3
		c-0.8,0.3,0.2,0.5,0.2,0.5s-6.4,0.4-7.6,1.1c-1.2,0.7,0.5,1,0.5,1s-6.3,1.1-7.2,2.8c-0.8,1.7,0.5,1.3,0.5,1.3s-3.6,4.3-4.5,5.7
		c-0.3,0.5,0.2,0.9,0.2,0.9s-1.5,3.2-0.9,3.8c0.6,0.6,4.7-4.6,6.2-6.2c1.4-1.6,6.4-3.5,10.9-3.5
		C626.9,161.4,636.6,164.1,638.5,164.1z"/>
	<path class="st49" d="M684.9,164.1c-1.2,0-1.2-5.2,0-7.8c1.2-2.6,4.2-3.5,5-3.2c0.8,0.3,0.3,0.8,0.3,0.8s8.2,0,9,0.3
		c0.8,0.3-0.2,0.5-0.2,0.5s6.4,0.4,7.6,1.1c1.2,0.7-0.5,1-0.5,1s6.3,1.1,7.2,2.8c0.8,1.7-0.5,1.3-0.5,1.3s3.6,4.3,4.5,5.7
		c0.3,0.5-0.2,0.9-0.2,0.9s1.5,3.2,0.9,3.8c-0.6,0.6-4.7-4.6-6.2-6.2c-1.4-1.6-6.4-3.5-10.9-3.5
		C696.5,161.4,686.7,164.1,684.9,164.1z"/>
	<g>
		<defs>
			<path id="SVGID_42_" d="M680.9,215.2l-1.4,6.8c0,0-9.4,8.6-30,2.9c0,0-2-4.4-2.2-7.5C647.3,217.4,654.1,221.2,680.9,215.2z"/>
		</defs>
		<clipPath id="SVGID_43_">
			<use xlink:href="#SVGID_42_"  style="overflow:visible;"/>
		</clipPath>
		<polygon class="st50" points="698.6,236.2 642.9,236.2 646.5,219 698.6,221.1 		"/>
		<path class="st51" d="M647.4,216.9l1.3,3.7c0,0,5.8,4.6,33.2,0.2v-5.6L647.4,216.9z"/>
	</g>
	<g id="_x39__3_">
		<path class="st52" d="M744.5,124.7c0-3.2,1.9-9-4.2-19.2c-1.1-1.8-2.1-3.5-3-5.1c2.1-4.4,1.9-7.6,1.1-7.4c-1,0.2-2.9,0.6-4.8,1
			c-0.6-0.9-1.1-1.8-1.6-2.5c2.2-2.2,4.4-4.8,4.4-6.4c0-3.1-4.5-2.2-4.5-2.2c3.4-1.4,9.3-12.1,5.6-12.3c-3.6-0.3-4.2,0.8-10.1,0.8
			c-5.9,0-29.2-2.5-44.9-6.2c-15.7-3.6-35.9-4.2-35.9-4.2s10.9-3.1-1.7-3.4c-12.6-0.3-34.5,7.8-41.2,16c-4.8,5.8-6.4,10.9-7,13.5
			c-2.3,0.5-6.6,9-12.2,18.4c-6.1,10.2-10.2,16.6-10.2,19.8s0.3,6.7,2.6,5.5c2.3-1.2,0,2,1.5,6.4c1.5,4.4,7.9,17.4,9,21.2
			c1.2,3.8,6.7,9,6.7,10.2c0,1.2-0.3,12.8,4.9,13.4c2.3,0.3,0.6,0.6,1.2-3.2s0.6-5.8,0.6-11c0-5.2-1.2-10.2-0.9-12.5
			c0.3-2.3,1.7-1.2,2.3-4.7c0.6-3.5,0-7.8,0-7.8s1.7,1.5,1.2-1.7c-0.6-3.2-2-5.5-2-5.5s0.9-5.8,3.8-12.5c0.4-0.9,0.7-1.6,1-2.1
			c10.5,7.8,38.6,12.1,82.5,5.8c12.4-1.8,21.8-4.8,28.9-8.4c0.2,0.9,0.8,1.8,2,4.7c2.9,6.7,3.8,12.5,3.8,12.5s-1.5,2.3-2,5.5
			c-0.6,3.2,1.2,1.7,1.2,1.7s-0.6,4.4,0,7.8c0.6,3.5,2,2.3,2.3,4.7c0.3,2.3-0.9,7.3-0.9,12.5c0,5.2,0,7.3,0.6,11s-1.2,3.5,1.2,3.2
			c5.2-0.6,4.9-12.2,4.9-13.4c0-1.2,5.5-6.4,6.7-10.2c1.2-3.8,3.9-16.9,5.4-21.2c1.5-4.4-0.9-7.6,1.5-6.4
			C746.6,132,744.5,127.9,744.5,124.7z"/>
		<g class="st15">
			<defs>
				<path id="SVGID_44_" class="st15" d="M744.5,124.7c0-3.2,1.9-9-4.2-19.2c-1.1-1.8-2.1-3.5-3-5.1c2.1-4.4,1.9-7.6,1.1-7.4
					c-1,0.2-2.9,0.6-4.8,1c-0.6-0.9-1.1-1.8-1.6-2.5c2.2-2.2,4.4-4.8,4.4-6.4c0-3.1-4.5-2.2-4.5-2.2c3.4-1.4,9.3-12.1,5.6-12.3
					c-3.6-0.3-4.2,0.8-10.1,0.8c-5.9,0-29.2-2.5-44.9-6.2c-15.7-3.6-35.9-4.2-35.9-4.2s10.9-3.1-1.7-3.4c-12.6-0.3-34.5,7.8-41.2,16
					c-4.8,5.8-6.4,10.9-7,13.5c-2.3,0.5-6.6,9-12.2,18.4c-6.1,10.2-10.2,16.6-10.2,19.8s0.3,6.7,2.6,5.5c2.3-1.2,0,2,1.5,6.4
					c1.5,4.4,7.9,17.4,9,21.2c1.2,3.8,6.7,9,6.7,10.2c0,1.2-0.3,12.8,4.9,13.4c2.3,0.3,0.6,0.6,1.2-3.2s0.6-5.8,0.6-11
					c0-5.2-1.2-10.2-0.9-12.5c0.3-2.3,1.7-1.2,2.3-4.7c0.6-3.5,0-7.8,0-7.8s1.7,1.5,1.2-1.7c-0.6-3.2-2-5.5-2-5.5s0.9-5.8,3.8-12.5
					c0.4-0.9,0.7-1.6,1-2.1c10.5,7.8,38.6,12.1,82.5,5.8c12.4-1.8,21.8-4.8,28.9-8.4c0.2,0.9,0.8,1.8,2,4.7
					c2.9,6.7,3.8,12.5,3.8,12.5s-1.5,2.3-2,5.5c-0.6,3.2,1.2,1.7,1.2,1.7s-0.6,4.4,0,7.8c0.6,3.5,2,2.3,2.3,4.7
					c0.3,2.3-0.9,7.3-0.9,12.5c0,5.2,0,7.3,0.6,11s-1.2,3.5,1.2,3.2c5.2-0.6,4.9-12.2,4.9-13.4c0-1.2,5.5-6.4,6.7-10.2
					c1.2-3.8,3.9-16.9,5.4-21.2c1.5-4.4-0.9-7.6,1.5-6.4C746.6,132,744.5,127.9,744.5,124.7z"/>
			</defs>
			<clipPath id="SVGID_45_">
				<use xlink:href="#SVGID_44_"  style="overflow:visible;"/>
			</clipPath>
			<path class="st53" d="M576.3,103.4c0,0,67.1-50.6,166.7-8.8V49.9H575.5L576.3,103.4z"/>
		</g>
	</g>
	<g id="_x34__15_">
		<path class="st54" d="M673.8,251.7c0,0,10.6,5,10.4,11.4c0,0-7.3,2.3-14.9,0C669.3,263.1,674.1,258.3,673.8,251.7z"/>
		<path class="st55" d="M693.4,281.5c0,0-10.3,52.7-4.9,76.1c0,0,1.8,6.8-3.4,8.2c0,0-10.1,4.1-18.3-0.5c0,0-3.1-4.3-1-10.6
			c0,0-0.3-51.1,5.9-71.7C671.7,282.8,684.1,280.6,693.4,281.5z"/>
		<path class="st54" d="M680.4,284.8c0,0-12,58.4-5.7,84.3c0,0,2.1,7.5-3.9,9c0,0-11.7,4.5-21.4-0.6c0,0-3.6-4.8-1.2-11.7
			c0,0-0.3-56.6,6.9-79.5C655.1,286.3,669.6,283.9,680.4,284.8z"/>
		<path class="st56" d="M650.6,251.7c0,0,13.5,15.8,33.5,11.4c0,0,16.9,4,7.6,26.9c0,0-2.7-7.6-23.6-4.6c0,0-31.8,8.2-35-20.7
			C633.2,264.7,634.8,255.6,650.6,251.7z"/>
		<g>
			<defs>
				<path id="SVGID_46_" d="M650.6,251.7c0,0,13.5,15.8,33.5,11.4c0,0,16.9,4,7.6,26.9c0,0-2.7-7.6-23.6-4.6c0,0-31.8,8.2-35-20.7
					C633.2,264.7,634.8,255.6,650.6,251.7z"/>
			</defs>
			<clipPath id="SVGID_47_">
				<use xlink:href="#SVGID_46_"  style="overflow:visible;"/>
			</clipPath>
			<path class="st57" d="M643.4,249.6c0,0,8.4,28.3,56,37.3l-1.5,7.5h-70.2v-47.3L643.4,249.6z"/>
		</g>
	</g>
	<g>
		<path class="st58" d="M657.2,353.9c0.7-0.1,43.9,12.9,48.5,13.5c4.7,0.6,20.8-6.9,21.7-7.8c0.9-1,0.7-6-0.6-9.6
			c-1.3-3.6-8.9-35.4-10.9-41.5c-2-6.1-14.6-42.6-14.6-42.6s-9.6,17-7.9,25.3c1.7,8.3,5.7,38.1,5.7,38.1s-39.9,21.4-40.5,21.7
			C658.1,351.1,657.2,353.9,657.2,353.9z"/>
		<path class="st58" d="M675.6,332.9c-1.9-2.2-2.1-2.2-4.9-2.5c0,0-14.6,8.1-24,10.3c-7,1.6-13,2.4-18.8,4.1
			c-1.8-1.7-3.2-3.3-3.2-3.3l9.3-35.9c3.8-20.1-8.1-35.6-8.7-35.9c-6,4.5-10,29.5-10.9,33.8c-0.9,4.3-7.8,35.1-7.7,36.4
			c0.1,1.3-2.8,17-1,23.5c1.8,6.5,12.4,5.4,12.9,5.6c0,0,6.3-0.7,4.9-0.7c-1.4,0,8.3-0.2,16.1-3.9c13.3-6.2,24.8-14.8,39.8-21
			C679.4,343.3,679.7,337.6,675.6,332.9z"/>
		<path class="st59" d="M679.7,342.9c0,0,13.4-2.2,18.9-1.7c0,0,0.5-1.4,1.2-1.3c0.7,0.1,5.5,0,5.5,0s0.5-0.4,0.3-1.8
			c-0.4-2.8-1.5-11.2-1.5-11.2s-2.5-4.4-3.6-6c-1.4-2.1-5.9-6-8.1-4.8c-2.2,1.1-11.2,7.4-12,8c-0.3,0.2-5.9,4.5-7.2,5l-5,2.6
			c0,0,0.1,0.5,1.6,1.3c2.4,1.3,9.5,10.1,9.5,10.1S679.6,343,679.7,342.9L679.7,342.9z"/>
		<path class="st60" d="M679.4,343.1c0,0,0.3-5.7-3.8-10.4c-1.9-2.2-2.1-2.2-4.9-2.5c0,0-2,1.1-5.1,2.7c1.4,0.3,3.4,1.2,4.9,3.3
			c2.3,3.3,2.5,7,2.2,10C674.9,345,677.1,344,679.4,343.1z"/>
		<path class="st59" d="M648.6,332.8c0-0.3-0.9-2.5-1.2-4.7c-0.4-2.2-2.5-8.5-4-10.1c-5-5.5-3.8-9.4-5.8-10.9c0,0-0.9-0.1-1.8,0.2
			c-2,0.8-4.9,3-4.5,7.3c0.6,6.1,1.6,5.9,2.9,7.6c1.3,1.7,4.4,5.5,5.7,7c1.4,1.4,6.1,3.4,6.6,4.1c0.5,0.7,2-0.7,2-0.7L648.6,332.8z"
			/>
		<path class="st59" d="M655.9,337.6c-1,0.4-7.6,3.1-12.2,3.8c0,0-15.3,3.4-15.6,3.3c-0.4-0.1-6.8-3.6-7.4-4.3
			c-0.5-0.7-4.3-1.6-4.3-1.6s-6.4,1.5-8.6,1.6c-2.2,0-3.4-1.9-3.5-3c-0.1-1.2,0.2-1.7,0.2-1.7s-1.9-0.8-2.6-1.9
			c-0.7-1.1-0.5-4-0.1-4.6c0,0-0.7-0.6-1.2-1.9c-0.4-1.1-1.1-4.9,1.3-6.9c0,0,13.3-0.7,13.6-0.7c0.3-0.1,6.4,1.3,8.9,2.5l-6.4-4
			c0,0-10.9-0.5-12.3-1.5c-1.4-1-3.4-6.6,0-9.6c3.7,0.2,12,3.2,13.6,2.9c0.9-0.1,4.3,2.1,7.5,3.6c2.4,1.1,4.8,1.6,5,1.8
			c0.5,0.4,11.5,6.4,12.6,8c0.6,0.9,1.5,2,2.7,3.3c1,1.2,1.3,3.1,2.5,4.8c2.7,3.6,6.1,5.8,6.4,6L655.9,337.6z"/>
		<path class="st59" d="M648.6,332.8c0-0.3-0.9-2.5-1.2-4.7c-0.4-2.2-2.5-8.5-4-10.1c-5-5.5-3.8-9.4-5.8-10.9c0,0-0.9-0.1-1.8,0.2
			c-2,0.8-4.9,3-4.5,7.3c0.6,6.1,1.6,5.9,2.9,7.6c1.3,1.7,4.4,5.5,5.7,7c1.4,1.4,6.1,3.4,6.6,4.1c0.5,0.7,2-0.7,2-0.7L648.6,332.8z"
			/>
		<path class="st59" d="M603,334.6"/>
	</g>
</g>
</svg>
