<?xml version="1.0" encoding="utf-8"?>
<!-- Generator: Adobe Illustrator 19.1.0, SVG Export Plug-In . SVG Version: 6.00 Build 0)  -->
<svg version="1.1" id="Layer_1" xmlns="http://www.w3.org/2000/svg" xmlns:xlink="http://www.w3.org/1999/xlink" x="0px" y="0px"
	 viewBox="0 0 1204 768" style="enable-background:new 0 0 1204 768;" xml:space="preserve">
<style type="text/css">
	.st0{fill:#ADA176;}
	.st1{fill:none;stroke:#ADA176;stroke-width:1.9213;stroke-miterlimit:10;}
	.st2{fill:none;stroke:#ADA176;stroke-width:3.011;stroke-miterlimit:10;}
</style>
<g>
	<path class="st0" d="M340.9,230.6l-2.4-13.1c-0.1-0.7-0.4-1.3-0.9-1.7l-33.1-33.1c-0.6-0.6-1.5-1-2.3-1c-0.9,0-1.7,0.3-2.3,1
		l-10.7,10.7c-1.3,1.3-1.3,3.4,0,4.7l33.1,33.1c0.5,0.5,1.1,0.8,1.7,0.9l13.1,2.4c0.2,0,0.4,0.1,0.6,0.1c0.9,0,1.7-0.3,2.3-1
		C340.7,232.8,341.1,231.7,340.9,230.6z M326.2,229.1l9.3-9.3l0.7,3.9l-6.2,6.2L326.2,229.1z M291.4,195.7l2.4-2.4l23.4,23.4
		c0.2,0.2,0.5,0.3,0.8,0.3s0.6-0.1,0.8-0.3c0.4-0.4,0.4-1.1,0-1.6l-23.4-23.4l2.6-2.6l4.9,4.9c0.2,0.2,0.5,0.3,0.8,0.3
		c0.3,0,0.6-0.1,0.8-0.3c0.4-0.4,0.4-1.1,0-1.6l-4.9-4.9l2.6-2.6l32.5,32.5l-2.6,2.6l-23.5-23.5c-0.4-0.4-1.1-0.4-1.6,0
		c-0.4,0.4-0.4,1.1,0,1.6l23.5,23.5l-2.6,2.6l-5-5c-0.4-0.4-1.1-0.4-1.6,0c-0.4,0.4-0.4,1.1,0,1.6l5,5l-2.4,2.4L291.4,195.7z
		 M332.7,230.3l4-4l0.9,4.9L332.7,230.3z"/>
	<g>
		<path class="st0" d="M335.1,271.3h-37.4c-2.1,0-3.8,1.7-3.8,3.8v12.5c0,1.3,0.6,2.5,1.7,3.2l12.2,8.1c-5.7,3.1-9.5,9.1-9.5,16
			c0,10,8.1,18.2,18.2,18.2c10,0,18.2-8.1,18.2-18.2c0-6.9-3.9-12.9-9.5-16l12.2-8.1c1.1-0.7,1.7-1.9,1.7-3.2v-12.5
			C338.9,273,337.2,271.3,335.1,271.3z M330.7,314.9c0,7.9-6.4,14.3-14.3,14.3c-7.9,0-14.3-6.4-14.3-14.3c0-7.9,6.4-14.3,14.3-14.3
			C324.3,300.6,330.7,307,330.7,314.9z M335.1,287.6l-7.3,4.9v-7.3c0-0.7-0.6-1.3-1.3-1.3c-0.7,0-1.3,0.6-1.3,1.3v9l-4.6,3.1
			c-1.4-0.3-2.8-0.5-4.2-0.5c-1.4,0-2.9,0.2-4.2,0.5l-4.7-3.1v-9c0-0.7-0.6-1.3-1.3-1.3c-0.7,0-1.3,0.6-1.3,1.3v7.3l-7.2-4.8v-12.5
			h7.2v3.4c0,0.7,0.6,1.3,1.3,1.3c0.7,0,1.3-0.6,1.3-1.3v-3.4h17.7v3.4c0,0.7,0.6,1.3,1.3,1.3c0.7,0,1.3-0.6,1.3-1.3v-3.4h7.3V287.6
			z"/>
		<path class="st0" d="M314.1,304.9l-2.1,4.3l-4.8,0.7c-1,0.1-1.8,0.8-2.1,1.7c-0.3,0.9-0.1,1.9,0.6,2.6l3.5,3.4l-0.8,4.7
			c-0.2,1,0.2,1.9,1,2.5c0.4,0.3,1,0.5,1.5,0.5c0.4,0,0.8-0.1,1.2-0.3l4.3-2.2l4.3,2.2c0.4,0.2,0.8,0.3,1.2,0.3
			c0.5,0,1.1-0.2,1.5-0.5c0.8-0.6,1.2-1.5,1-2.5l-0.8-4.7l3.4-3.4c0.7-0.7,0.9-1.7,0.6-2.6c-0.3-0.9-1.1-1.6-2.1-1.7l-4.8-0.7
			l-2.1-4.3c-0.4-0.9-1.3-1.4-2.3-1.4C315.4,303.5,314.5,304,314.1,304.9z M319.1,311.6l6.1,0.9l-4.4,4.3l1,6.1l-5.5-2.9l-5.5,2.9
			l1-6.1l-4.4-4.3l6.1-0.9l2.7-5.5L319.1,311.6z"/>
	</g>
	<g>
		<path class="st0" d="M336.4,369H333v-2.4c0-0.7-0.5-1.2-1.2-1.2s-1.2,0.5-1.2,1.2v2.4h-3.4v-2.4c0-0.7-0.5-1.2-1.2-1.2
			c-0.7,0-1.2,0.5-1.2,1.2v2.4h-3.4v-2.4c0-0.7-0.5-1.2-1.2-1.2c-0.7,0-1.2,0.5-1.2,1.2v2.4h-3.4v-2.4c0-0.7-0.5-1.2-1.2-1.2
			c-0.7,0-1.2,0.5-1.2,1.2v2.4h-3.4v-2.4c0-0.7-0.5-1.2-1.2-1.2c-0.7,0-1.2,0.5-1.2,1.2v2.4h-3.4v-2.4c0-0.7-0.5-1.2-1.2-1.2
			c-0.7,0-1.2,0.5-1.2,1.2v2.4h-3.4c-2,0-3.6,1.6-3.6,3.6v46.7c0,2,1.6,3.6,3.6,3.6h38.1c2,0,3.6-1.6,3.6-3.6v-46.7
			C340.1,370.7,338.4,369,336.4,369z M298.3,419.4v-37.9h25.9c0.7,0,1.2-0.5,1.2-1.2c0-0.7-0.5-1.2-1.2-1.2h-25.9v-6.5h3.4v2.5
			c0,0.7,0.5,1.2,1.2,1.2c0.7,0,1.2-0.5,1.2-1.2v-2.5h3.4v2.5c0,0.7,0.5,1.2,1.2,1.2c0.7,0,1.2-0.5,1.2-1.2v-2.5h3.4v2.5
			c0,0.7,0.5,1.2,1.2,1.2c0.7,0,1.2-0.5,1.2-1.2v-2.5h3.4v2.5c0,0.7,0.5,1.2,1.2,1.2c0.7,0,1.2-0.5,1.2-1.2v-2.5h3.4v2.5
			c0,0.7,0.5,1.2,1.2,1.2c0.7,0,1.2-0.5,1.2-1.2v-2.5h3.4v2.5c0,0.7,0.5,1.2,1.2,1.2s1.2-0.5,1.2-1.2v-2.5h3.4v6.5H331
			c-0.7,0-1.2,0.5-1.2,1.2c0,0.7,0.5,1.2,1.2,1.2h5.4v37.9H298.3z"/>
		<circle class="st0" cx="308.9" cy="389.3" r="1.6"/>
		<circle class="st0" cx="314.5" cy="389.3" r="1.6"/>
		<circle class="st0" cx="320.4" cy="389.3" r="1.6"/>
		<circle class="st0" cx="326" cy="389.3" r="1.6"/>
		<circle class="st0" cx="331.8" cy="389.3" r="1.6"/>
		<g>
			<circle class="st0" cx="303.1" cy="395.3" r="1.6"/>
			<circle class="st0" cx="308.9" cy="395.3" r="1.6"/>
			<circle class="st0" cx="314.6" cy="395.3" r="1.6"/>
			<circle class="st0" cx="320.4" cy="395.3" r="1.6"/>
			<circle class="st0" cx="326" cy="395.3" r="1.6"/>
			<circle class="st0" cx="331.9" cy="395.3" r="1.6"/>
		</g>
		<g>
			<circle class="st0" cx="303.2" cy="401.3" r="1.6"/>
			<circle class="st0" cx="309" cy="401.3" r="1.6"/>
			<circle class="st0" cx="314.6" cy="401.3" r="1.6"/>
			<circle class="st0" cx="320.5" cy="401.3" r="1.6"/>
			<circle class="st0" cx="326.1" cy="401.3" r="1.6"/>
			<circle class="st0" cx="332" cy="401.3" r="1.6"/>
		</g>
		<g>
			<circle class="st0" cx="303.2" cy="407.3" r="1.6"/>
			<circle class="st0" cx="309.1" cy="407.3" r="1.6"/>
			<circle class="st0" cx="314.7" cy="407.3" r="1.6"/>
			<circle class="st0" cx="320.5" cy="407.3" r="1.6"/>
			<circle class="st0" cx="326.2" cy="407.3" r="1.6"/>
			<circle class="st0" cx="332" cy="407.3" r="1.6"/>
		</g>
		<circle class="st0" cx="303.3" cy="413.2" r="1.6"/>
		<circle class="st0" cx="309.1" cy="413.2" r="1.6"/>
		<circle class="st0" cx="314.7" cy="413.2" r="1.6"/>
		<circle class="st0" cx="320.6" cy="413.2" r="1.6"/>
	</g>
	<g>
		<path class="st0" d="M316.1,461.7c3,0,5.5-2.5,5.5-5.6c0-3.1-2.5-5.6-5.5-5.6s-5.5,2.5-5.5,5.6C310.6,459.2,313,461.7,316.1,461.7
			z M316.1,454.3c1,0,1.8,0.8,1.8,1.8c0,1-0.8,1.8-1.8,1.8c-1,0-1.8-0.8-1.8-1.8C314.3,455.2,315.1,454.3,316.1,454.3z"/>
		<path class="st0" d="M337.3,500.1h-1.8v-16c0-10.9-8.7-19.7-19.4-19.7c-10.7,0-19.4,8.9-19.4,19.7v16h-1.8c-1,0-1.8,0.8-1.8,1.9
			s0.8,1.9,1.8,1.9h3.7h9.6c0.8,3.7,4.1,6.4,7.9,6.4c3.9,0,7.1-2.7,7.9-6.4h9.6h3.7c1,0,1.8-0.8,1.8-1.9S338.3,500.1,337.3,500.1z
			 M316.1,506.6c-1.8,0-3.4-1.1-4.1-2.7h8.1C319.5,505.5,317.9,506.6,316.1,506.6z M300.4,497.4h19.4c0.7,0,1.2-0.6,1.2-1.2
			c0-0.7-0.5-1.2-1.2-1.2h-19.4v-10.8c0-8.8,7-16,15.7-16c8.7,0,15.7,7.2,15.7,16v10.8H327c-0.7,0-1.2,0.6-1.2,1.2
			c0,0.7,0.5,1.2,1.2,1.2h4.7v2.7h-31.4V497.4z"/>
	</g>
	<path class="st0" d="M351.2,583l-13.3-13.3c-0.7-0.7-1.7-1.1-2.7-1.1c-1,0-2,0.4-2.7,1.1l-4.8,4.8c-0.7,0.7-1.1,1.7-1.1,2.7
		c0,0.4,0.1,0.8,0.2,1.2l-0.3,0.3c-5.1-4.3-11.1-10.4-15.4-15.5l0.3-0.3c0.4,0.1,0.8,0.2,1.2,0.2c1,0,2-0.4,2.7-1.1l4.8-4.8
		c0.7-0.7,1.1-1.7,1.1-2.7c0-1-0.4-2-1.1-2.7l-13.3-13.3c-0.8-0.8-1.7-1.1-2.7-1.1c-1,0-2,0.4-2.7,1.1l-4.8,4.8
		c-0.7,0.7-1.1,1.7-1.1,2.7c0,0.6,0.1,1.2,0.4,1.7c-1.5,2.2-3.1,4.5-3.6,5.1c-1.7,1.9-1.9,4.6-0.5,6.8c9,14.2,24.5,29.7,38.7,38.7
		c0.9,0.6,2,0.9,3,0.9c1.4,0,2.7-0.5,3.8-1.4c0.6-0.4,2.8-2,5-3.6c0.5,0.3,1.1,0.4,1.7,0.4c1,0,2-0.4,2.7-1.1l4.8-4.8
		c0.7-0.7,1.1-1.7,1.1-2.7C352.4,584.7,352,583.7,351.2,583z M343.9,590.3l-6.6-6.6c-0.5-0.5-1.3-0.5-1.8,0c-0.5,0.5-0.5,1.3,0,1.8
		l4.9,4.9c-2.3,1.6-5.8,4.1-5.8,4.2c-0.3,0.3-0.8,0.5-1.3,0.5c-0.3,0-0.7-0.1-1-0.3c-13.6-8.7-28.8-23.8-37.5-37.5
		c-0.5-0.7-0.3-1.7,0.2-2.2c0.1-0.1,2.5-3.6,4.1-5.9l1.5,1.5c0.3,0.3,0.6,0.4,0.9,0.4c0.3,0,0.7-0.1,0.9-0.4c0.5-0.5,0.5-1.3,0-1.8
		l-3.2-3.2l4.6-4.6l13.3,13.3l-4.6,4.6l-7-7c-0.5-0.5-1.3-0.5-1.8,0c-0.5,0.5-0.5,1.3,0,1.8l5.5,5.5l-3.6,3.6
		c5.1,6.5,14.4,15.8,20.9,20.9l3.6-3.6l2.1,2.1c0.3,0.3,0.6,0.4,0.9,0.4s0.7-0.1,0.9-0.4c0.5-0.5,0.5-1.3,0-1.8l-3.6-3.6l4.6-4.6
		l13.3,13.3L343.9,590.3z"/>
</g>
<g>
	<g>
		<path class="st0" d="M581.3,212.9c7.7,0,14-6.3,14-14c0-7.7-6.3-14-14-14s-14,6.3-14,14C567.2,206.6,573.6,212.9,581.3,212.9z
			 M581.3,188.5c5.7,0,10.4,4.7,10.4,10.4c0,5.7-4.7,10.4-10.4,10.4c-5.7,0-10.4-4.7-10.4-10.4C570.9,193.1,575.6,188.5,581.3,188.5
			z"/>
		<path class="st0" d="M605.5,227.4c-3.5-6.1-9.1-10.6-15.8-12.7c-0.9-0.3-1.8,0.1-2.2,0.9c-1.4,2.9-3.5,5.3-6.2,7.1
			c-2.7-1.8-4.8-4.2-6.2-7.1c-0.4-0.8-1.3-1.2-2.2-0.9c-6.7,2.1-12.3,6.6-15.8,12.7c-0.3,0.6-0.3,1.3,0,1.8c5,8.6,14.3,14,24.2,14
			s19.2-5.4,24.2-14C605.8,228.7,605.8,228,605.5,227.4z M590,218.7c1,0.4,2,0.8,2.9,1.4c-1.5,2.6-3.6,5.6-6.3,8
			c-0.3-0.3-0.6-0.5-0.9-0.8c-0.7-0.6-1.3-1.2-2-1.7C586.3,223.8,588.4,221.5,590,218.7z M578.9,225.5c-0.7,0.5-1.4,1.1-2,1.7
			c-0.3,0.3-0.6,0.6-0.9,0.8c-2.7-2.4-4.8-5.4-6.3-8c0.9-0.5,1.9-1,2.9-1.4C574.2,221.5,576.3,223.8,578.9,225.5z M582.5,239.5v-8.1
			c0-0.7-0.5-1.2-1.2-1.2s-1.2,0.5-1.2,1.2v8.1c-7.8-0.4-15-4.6-19.2-11.2c1.8-2.8,4.1-5.1,6.7-7c1.7,3,4.3,6.6,7.6,9.3
			c0.4,0.4,1.1,0.4,1.5,0c0.6-0.5,1.2-1,1.8-1.6c0.9-0.8,1.9-1.7,2.8-2.3c0.9,0.6,1.9,1.5,2.8,2.3c0.6,0.6,1.2,1.1,1.8,1.6
			c0.2,0.2,0.5,0.3,0.8,0.3c0.3,0,0.5-0.1,0.8-0.3c3.3-2.6,5.8-6.3,7.6-9.3c2.7,1.8,5,4.2,6.7,7
			C597.5,234.9,590.3,239.1,582.5,239.5z"/>
	</g>
	<g>
		<path class="st0" d="M580.6,277.6c-16.1,0-29.2,13.1-29.2,29.2c0,16.1,13.1,29.2,29.2,29.2c16.1,0,29.2-13.1,29.2-29.2
			C609.9,290.7,596.7,277.6,580.6,277.6z M580.6,332.3c-14.1,0-25.6-11.5-25.6-25.6c0-14.1,11.5-25.6,25.6-25.6
			c14.1,0,25.6,11.5,25.6,25.6C606.2,320.9,594.7,332.3,580.6,332.3z"/>
		<path class="st0" d="M574.9,306.8c0,3.1,2.6,5.7,5.7,5.7c0.3,0,0.6,0,0.9-0.1c4.4,4,8.4,6.8,10.5,7.3c0.1,0,0.2,0,0.3,0h0
			c0.7,0,1.2-0.5,1.2-1.2c0-0.2,0-0.3-0.1-0.5c-0.6-2.2-3.3-6-7.3-10.4c0-0.3,0.1-0.6,0.1-0.9c0-3.1-2.6-5.7-5.7-5.7
			c-0.3,0-0.6,0-0.9,0.1c-4.4-4-8.4-6.8-10.6-7.3c-0.4-0.1-0.8,0-1.1,0.3c-0.3,0.3-0.4,0.7-0.3,1.1c0.5,2.2,3.3,6.1,7.3,10.5
			C575,306.2,574.9,306.5,574.9,306.8z M589.6,315.7c-1.5-1-3.4-2.5-5.5-4.4c0.4-0.3,0.8-0.7,1.2-1.2
			C587.1,312.3,588.5,314.2,589.6,315.7z M583.9,306.8c0,1.8-1.5,3.2-3.2,3.2c-1.8,0-3.2-1.5-3.2-3.2c0-1.8,1.5-3.2,3.2-3.2
			C582.4,303.5,583.9,305,583.9,306.8z"/>
		<path class="st0" d="M579.4,286.3v2c0,0.7,0.5,1.2,1.2,1.2s1.2-0.5,1.2-1.2v-2c2.3,0.1,4.5,0.6,6.7,1.5c0.6,0.3,1.3,0,1.6-0.7
			c0.3-0.6,0-1.3-0.7-1.6c-2.8-1.2-5.8-1.8-8.8-1.8c-12.6,0-22.9,10.3-22.9,22.9c0,5.4,1.9,10.6,5.3,14.7c0.2,0.3,0.6,0.4,0.9,0.4
			c0.3,0,0.6-0.1,0.8-0.3c0.5-0.4,0.6-1.2,0.2-1.7c-2.8-3.4-4.5-7.6-4.7-11.9h2c0.7,0,1.2-0.5,1.2-1.2c0-0.7-0.5-1.2-1.2-1.2h-2
			C560.8,295.2,569.1,286.9,579.4,286.3z"/>
		<path class="st0" d="M598.1,291.9c-0.4-0.5-1.2-0.6-1.7-0.1c-0.5,0.4-0.6,1.2-0.1,1.7c2.9,3.4,4.6,7.7,4.9,12.1h-2
			c-0.7,0-1.2,0.5-1.2,1.2c0,0.7,0.5,1.2,1.2,1.2h2c-0.6,10.3-8.9,18.6-19.2,19.2v-2c0-0.7-0.5-1.2-1.2-1.2s-1.2,0.5-1.2,1.2v2
			c-2.9-0.2-5.8-1-8.3-2.3c-0.6-0.3-1.3-0.1-1.6,0.5c-0.3,0.6-0.1,1.3,0.5,1.7c3.3,1.7,7,2.6,10.7,2.6c12.6,0,22.9-10.3,22.9-22.9
			C603.6,301.3,601.6,296,598.1,291.9z"/>
	</g>
	<g>
		<path class="st0" d="M566.2,395.6c0.7-0.1,1.1-0.8,0.9-1.5c-0.3-1.4-0.4-2.8-0.1-4.2c1-6.2,6.8-10.4,12.9-9.5
			c1.5,0.2,2.8,0.7,4.1,1.5c0.6,0.3,1.3,0.2,1.7-0.4c0.3-0.6,0.2-1.3-0.4-1.7c-1.5-0.9-3.2-1.5-5-1.8c-7.5-1.2-14.6,4-15.7,11.5
			c-0.3,1.7-0.2,3.4,0.2,5.1c0.1,0.6,0.6,1,1.2,1C566,395.6,566.1,395.6,566.2,395.6z"/>
		<path class="st0" d="M600.2,404.7c0-1.7-0.7-3.3-1.8-4.3c1.2-2.7,1.8-5.6,1.8-8.7c0-12.1-9.9-22-22-22c-12.1,0-22,9.9-22,22
			c0,7.3,3.5,13.7,9,17.7c0,0.2,0.1,0.4,0.2,0.7c0.2,0.7,0.5,1.3,0.9,1.9c2,3,4.2,6.4,6.4,9.7c2.2,3.4,5.5,5.4,9.6,6.2
			c0.5,0.1,1,0.2,1.5,0.2c0.2,0,0.4,0.1,0.7,0.1c0.2,0,0.3,0,0.5,0h2.5c0.2,0,0.4,0,0.6,0c0.2,0,0.4-0.1,0.7-0.1
			c0.4-0.1,0.8-0.1,1.1-0.2c5.3-0.9,9.2-4.9,10.1-10.1c0.2-1,0.3-2.1,0.3-3.1c0-3.9,0-4.4,0-6C600.2,407.8,600.2,406.7,600.2,404.7z
			 M559.9,391.7c0-10.1,8.2-18.3,18.3-18.3c10.1,0,18.3,8.2,18.3,18.3c0,2.6-0.5,5-1.5,7.2c-0.2,0-0.3,0-0.5,0c-0.5,0-1,0.1-1.5,0.2
			c-0.6-0.5-1.3-1-2-1.2c-0.1,0-0.3-0.1-0.4-0.1c0.6-1.2,1-2.5,1.3-4c0.5-3-0.1-6.1-1.6-8.8c-0.3-0.6-1.1-0.8-1.7-0.5
			c-0.6,0.3-0.8,1.1-0.5,1.7c1.2,2.2,1.7,4.7,1.3,7.2c-0.2,1.6-0.8,3-1.6,4.3c-0.1,0-0.1,0-0.2,0c-0.5-0.5-1.1-0.8-1.8-1.1
			c-0.5-0.3-1.1-0.4-1.7-0.4h-0.1c0-1.6,0-3.1,0-4.3c0-3-2-5.3-4.9-5.7c-0.3,0-0.6-0.1-0.8-0.1c-2.9,0-5.4,2.3-5.6,5.1
			c0,0.4,0,0.7,0,0.9v9.3c-1.1-0.7-2.2-1.5-3-2.5c-0.4-0.5-1.2-0.6-1.7-0.2c-0.5,0.4-0.6,1.2-0.2,1.7c0.6,0.7,1.3,1.3,2,1.9
			c-1.5,0.4-2.8,1.3-3.6,2.7c0,0.1-0.1,0.1-0.1,0.2C562.2,401.9,559.9,397.1,559.9,391.7z M596.5,414.6c0,0.8-0.1,1.7-0.2,2.5
			c-0.6,3.7-3.4,6.4-7.1,7.1c-0.6,0.1-1.2,0.2-1.8,0.3c-0.8,0-1.7,0-2.5,0c-0.7-0.1-1.3-0.2-2-0.3c-3-0.6-5.5-2-7.3-4.6
			c-2.2-3.2-4.3-6.5-6.4-9.7c-0.2-0.3-0.3-0.6-0.4-0.9c-0.4-1.4,0.4-2.8,1.8-3c0.2,0,0.4-0.1,0.6-0.1c0.8,0,1.5,0.4,2,1.1
			c0.9,1.2,1.7,2.3,2.6,3.5c0.1,0.1,0.2,0.2,0.3,0.4c0,0,0,0,0.1,0c0-0.1,0-0.2,0-0.3c0-5.4,0-12.9,0-18.3c0-0.2,0-0.4,0-0.6
			c0.1-1,1-1.8,2-1.8c0.1,0,0.2,0,0.3,0c1.1,0.2,1.8,1,1.8,2.1c0,3.3,0,8.7,0,12c0,0.2,0,0.3,0.1,0.5c0.1,0.3,0.3,0.4,0.6,0.4
			c0,0,0,0,0.1,0c0.3,0,0.5-0.1,0.6-0.4c0.1-0.1,0.1-0.3,0.1-0.5c0-1.1,0-1.5,0-1.5l0,1c0,0,0-0.4,0-1.5c0-0.7,0.2-1.4,0.9-1.8
			c0.2-0.2,0.5-0.3,0.8-0.4c0.3,0,0.5,0,0.8,0c0,0,0.1,0,0.1,0.1c1.1,0.4,1.6,1.1,1.6,2.2c0,1.1,0,1.5,0,1.5l0-1.1c0,0,0,0.4,0,1.5
			c0,0.1,0,0.2,0,0.3c0,0.4,0.3,0.6,0.7,0.6c0,0,0,0,0.1,0c0.4,0,0.6-0.3,0.6-0.7v0c0,0,0-0.1,0-0.1c0-0.3,0-0.5,0-0.7
			c0-0.5,0.1-0.9,0.4-1.3c0.4-0.5,1-0.8,1.6-0.8c0.2,0,0.4,0,0.7,0.1c0.8,0.3,1.4,1.1,1.4,2.1c0,1.1,0,1.5,0,1.5c0,0,0-1.1,0-1.1
			s0,0.4,0,1.5c0,0.1,0,0.3,0,0.4c0,0.3,0.3,0.5,0.6,0.6c0,0,0.1,0,0.1,0c0.2,0,0.5-0.2,0.6-0.4c0.1-0.2,0.1-0.3,0.1-0.5
			c0-0.1,0-0.3,0-0.4c0,0.3,0,0.7,0,0.7c0,0,0-0.2,0-0.9c0-0.4,0.1-0.7,0.2-1.1c0.3-0.7,1.1-1.2,1.8-1.2c0.1,0,0.3,0,0.4,0
			c1,0.2,1.6,1.1,1.6,2.1C596.5,410.6,596.5,408.7,596.5,414.6z"/>
	</g>
	<g>
		<g>
			<path class="st1" d="M596.6,603.7l-26.1,0c-2.6,0-4.6-2.1-4.6-4.6l0-46.5c0-2.6,2.1-4.6,4.6-4.6l26.1,0c2.6,0,4.6,2.1,4.6,4.6
				l0,46.5C601.3,601.6,599.2,603.7,596.6,603.7z"/>
		</g>
		<g>
			<rect x="570.3" y="552.5" class="st1" width="26.3" height="40.7"/>
		</g>
		<g>
			<circle class="st1" cx="583.4" cy="597.8" r="2.8"/>
		</g>
	</g>
	<line class="st1" x1="582.7" y1="482.3" x2="582.7" y2="485.2"/>
	<line class="st1" x1="582.7" y1="496.3" x2="582.7" y2="499.2"/>
	<g>
		<path class="st1" d="M603.9,491c0-3.1,2.5-5.7,5.7-5.7v-11.7h-53.9v11.7c3.1,0,5.7,2.5,5.7,5.7c0,3.1-2.5,5.7-5.7,5.7v11.3h53.9
			v-11.3C606.5,496.6,603.9,494.1,603.9,491z M600,497.8c0,2.2-1.8,4-4,4h-26.7c-2.2,0-4-1.8-4-4v-14.1c0-2.2,1.8-4,4-4l26.7,0
			c2.2,0,4,1.8,4,4V497.8z"/>
	</g>
	<g>
		<path class="st0" d="M577.2,492.7l3.5-0.2c0.1,0.6,0.2,1,0.5,1.3c0.4,0.5,0.9,0.7,1.6,0.7c0.5,0,0.9-0.1,1.2-0.4
			c0.3-0.2,0.4-0.5,0.4-0.9c0-0.3-0.1-0.6-0.4-0.8c-0.3-0.2-0.9-0.5-1.9-0.7c-1.6-0.4-2.8-0.8-3.5-1.5c-0.7-0.6-1-1.4-1-2.3
			c0-0.6,0.2-1.2,0.5-1.7c0.4-0.5,0.9-1,1.6-1.3c0.7-0.3,1.7-0.5,2.9-0.5c1.5,0,2.7,0.3,3.5,0.9s1.3,1.5,1.4,2.7l-3.5,0.2
			c-0.1-0.5-0.3-0.9-0.6-1.2c-0.3-0.2-0.7-0.4-1.2-0.4c-0.4,0-0.8,0.1-1,0.3c-0.2,0.2-0.3,0.4-0.3,0.7c0,0.2,0.1,0.4,0.3,0.5
			c0.2,0.2,0.6,0.3,1.2,0.4c1.6,0.3,2.8,0.7,3.5,1.1c0.7,0.4,1.2,0.8,1.5,1.3c0.3,0.5,0.5,1.1,0.5,1.8c0,0.8-0.2,1.5-0.6,2.1
			s-1,1.1-1.8,1.5c-0.8,0.3-1.7,0.5-2.9,0.5c-2,0-3.4-0.4-4.2-1.2C577.8,494.9,577.4,493.9,577.2,492.7z"/>
	</g>
</g>
<g>
	<rect x="828.6" y="309.1" class="st2" width="42.8" height="43.4"/>
	<polyline class="st2" points="871.3,374.7 828.6,374.7 828.6,418.1 871.3,418.1 	"/>
	<polyline class="st2" points="937.2,309.1 893,309.1 893,352.4 937.2,352.4 	"/>
	<polyline class="st2" points="937.2,374.7 937.2,418.1 893,418.1 893,374.7 	"/>
</g>
</svg>
